# File created by Blade
# Date/Time:  Wed Apr 08 17:39:41 2015
#---------------------------------------------------------
:version 1.10
:name HOM
:units
  mass 1.0
  length 1.000000
  angle deg
:documentation
     Acclaim Skeleton File
:root
   axis xyz
   order TX TY TZ RX RY RZ
   position 0.000000 0.000000 0.000000
   orientation 0 0 0
:bonedata
   begin
      id 1
      name Spine_dum
      direction 0.000000 1.000000 0.000000
      length 5.893853
      axis 0.0 0.0 0.0 xyz
   end
   begin
      id 2
      name LeftUpLeg_dum
      direction 1.000000 0.000000 0.000000
      length 3.697939
      axis 0.0 0.0 0.0 xyz
   end
   begin
      id 3
      name RightUpLeg_dum
      direction -1.000000 0.000000 0.000000
      length 3.697939
      axis 0.0 0.0 0.0 xyz
   end
   begin
      id 4
      name Spine
      direction 0.000000 1.000000 0.000000
      length 0.000000
      axis 0.0 0.0 0.0 xyz
      dof rx ry rz
   end
   begin
      id 5
      name Spine_dum1
      direction 0.000000 1.000000 0.000000
      length 16.447146
      axis 0.0 0.0 0.0 xyz
   end
   begin
      id 6
      name Spine_dum2
      direction 0.000000 1.000000 0.000000
      length 10.900383
      axis 0.0 0.0 0.0 xyz
   end
   begin
      id 7
      name Spine_dum3
      direction 0.000000 1.000000 0.000000
      length 10.900383
      axis 0.0 0.0 0.0 xyz
   end
   begin
      id 8
      name Head
      direction 0.000000 1.000000 0.000000
      length 4.527550
      axis 0.0 0.0 0.0 xyz
      dof rx ry rz
   end
   begin
      id 9
      name LeftShoulder
      direction 1.000000 0.000000 0.000000
      length 8.219464
      axis 0.0 0.0 -90.0 xyz
      dof rx ry rz
   end
   begin
      id 10
      name LeftArm
      direction 1.000000 0.000000 0.000000
      length 11.094937
      axis 0.0 0.0 -90.0 xyz
      dof rx ry rz
   end
   begin
      id 11
      name LeftForeArm
      direction 1.000000 0.000000 0.000000
      length 9.103875
      axis 0.0 0.0 -90.0 xyz
      dof ry rz rx
   end
   begin
      id 12
      name LeftHand
      direction 0.000000 0.000000 0.000000
      length 0.000000
      axis 0.0 0.0 -90.0 xyz
      dof rx ry rz
   end
   begin
      id 13
      name LeftHand_dum1
      direction 0.000000 0.000000 0.000000
      length 0.000000
      axis 0.0 0.0 -90.0 xyz
   end
   begin
      id 14
      name LeftHand_dum2
      direction 1.000000 0.000000 0.000000
      length 3.937000
      axis 0.0 0.0 -90.0 xyz
   end
   begin
      id 15
      name LeftHandThumb1
      direction 0.000000 0.000000 1.000000
      length 3.937000
      axis 0.0 0.0 -90.0 xyz
      dof rx rz ry
   end
   begin
      id 16
      name RightShoulder
      direction -1.000000 0.000000 0.000000
      length 8.219464
      axis 0.0 0.0 90.0 xyz
      dof rx ry rz
   end
   begin
      id 17
      name RightArm
      direction -1.000000 0.000000 0.000000
      length 11.094937
      axis 0.0 0.0 90.0 xyz
      dof rx ry rz
   end
   begin
      id 18
      name RightForeArm
      direction -1.000000 0.000000 0.000000
      length 9.103875
      axis 0.0 0.0 90.0 xyz
      dof ry rz rx
   end
   begin
      id 19
      name RightHand
      direction 0.000000 0.000000 0.000000
      length 0.000000
      axis 0.0 0.0 90.0 xyz
      dof rx ry rz
   end
   begin
      id 20
      name RightHand_dum1
      direction 0.000000 0.000000 0.000000
      length 0.000000
      axis 0.0 0.0 90.0 xyz
   end
   begin
      id 21
      name RightHand_dum2
      direction -1.000000 0.000000 0.000000
      length 3.937000
      axis 0.0 0.0 90.0 xyz
   end
   begin
      id 22
      name RightHandThumb1
      direction 0.000000 0.000000 1.000000
      length 3.937000
      axis 0.0 0.0 90.0 xyz
      dof rx rz ry
   end
   begin
      id 23
      name LeftUpLeg
      direction 0.000000 -1.000000 0.000000
      length 16.181467
      axis 0.0 0.0 0.0 xyz
      dof rx ry rz
   end
   begin
      id 24
      name LeftLeg
      direction 0.000000 -1.000000 0.000000
      length 16.501392
      axis 0.0 0.0 0.0 xyz
      dof rx ry rz
   end
   begin
      id 25
      name LeftFoot
      direction 0.000000 -0.258819 0.965926
      length 6.408245
      axis 15.0 0.0 0.0 xyz
      dof rx ry rz
   end
   begin
      id 26
      name LeftToeBase
      direction 0.000000 0.000000 1.000000
      length 2.952750
      axis 0.0 0.0 0.0 xyz
      dof rx ry rz
   end
   begin
      id 27
      name RightUpLeg
      direction 0.000000 -1.000000 0.000000
      length 16.181467
      axis 0.0 0.0 0.0 xyz
      dof rx ry rz
   end
   begin
      id 28
      name RightLeg
      direction 0.000000 -1.000000 0.000000
      length 16.501392
      axis 0.0 0.0 0.0 xyz
      dof rx ry rz
   end
   begin
      id 29
      name RightFoot
      direction 0.000000 -0.258819 0.965926
      length 6.408245
      axis 15.0 0.0 0.0 xyz
      dof rx ry rz
   end
   begin
      id 30
      name RightToeBase
      direction 0.000000 0.000000 1.000000
      length 2.952750
      axis 0.0 0.0 0.0 xyz
      dof rx ry rz
   end
:hierarchy
   begin
      root Spine_dum LeftUpLeg_dum RightUpLeg_dum
      Spine_dum Spine
      LeftUpLeg_dum LeftUpLeg
      RightUpLeg_dum RightUpLeg
      Spine Spine_dum1 Spine_dum2 Spine_dum3
      Spine_dum1 Head
      Spine_dum2 LeftShoulder
      Spine_dum3 RightShoulder
      LeftShoulder LeftArm
      LeftArm LeftForeArm
      LeftForeArm LeftHand
      LeftHand LeftHand_dum1 LeftHand_dum2
      LeftHand_dum1 LeftHandThumb1
      RightShoulder RightArm
      RightArm RightForeArm
      RightForeArm RightHand
      RightHand RightHand_dum1 RightHand_dum2
      RightHand_dum1 RightHandThumb1
      LeftUpLeg LeftLeg
      LeftLeg LeftFoot
      LeftFoot LeftToeBase
      RightUpLeg RightLeg
      RightLeg RightFoot
      RightFoot RightToeBase
   end

# File created by Blade
# Date/Time:  Wed Apr 08 17:39:35 2015
# Frame Rate: 120.000 fps
#------------------------------------------------------
:FULLY-SPECIFIED
:DEGREES
785
root 6.591524 35.921526 3.844049 7.200447 -48.214883 -359.974399
Spine -8.981677 -7.891435 -4.474337
Head 34.481084 10.113826 17.938659
LeftShoulder -8.414278 21.999738 13.169004
LeftArm 18.069576 15.209612 -77.639860
LeftForeArm 19.492368 -0.000000 21.025619
LeftHand -12.997359 0.000000 -11.430760
LeftHandThumb1 -26.253704 0.000000 33.147579
RightShoulder -38.968117 -49.639801 20.820759
RightArm 54.105605 -16.981958 47.968857
RightForeArm -2.597724 -0.000000 23.172811
RightHand -3.549273 -0.000000 21.075227
RightHandThumb1 -24.326973 -0.000000 -32.862282
LeftUpLeg -9.744038 -1.905245 -6.182414
LeftLeg 17.803334 -0.000000 -0.000000
LeftFoot -15.867519 2.038196 -1.719856
LeftToeBase 8.921178 -0.000000 -0.000000
RightUpLeg -73.103734 8.398158 -7.186106
RightLeg 65.289770 -0.000000 -0.000000
RightFoot 20.824426 -4.432573 10.746645
RightToeBase -12.556404 -0.000000 0.000000
786
root 6.593639 35.920975 3.844159 7.247721 -48.415505 -360.057844
Spine -8.969757 -7.684955 -4.506419
Head 34.448256 10.002904 18.020796
LeftShoulder -8.421905 22.030303 13.197246
LeftArm 18.002313 15.203042 -77.638100
LeftForeArm 19.362285 -0.000000 21.146537
LeftHand -13.001748 -0.000000 -11.445961
LeftHandThumb1 -26.253704 0.000000 33.147579
RightShoulder -38.960617 -49.640103 20.915312
RightArm 54.101639 -16.951058 47.865370
RightForeArm -2.289196 0.000000 23.266414
RightHand -3.676247 -0.000000 21.705343
RightHandThumb1 -24.326973 -0.000000 -32.862282
LeftUpLeg -9.761663 -1.787345 -6.151759
LeftLeg 17.864980 -0.000000 -0.000000
LeftFoot -15.930749 2.100905 -1.760126
LeftToeBase 8.967545 -0.000000 -0.000000
RightUpLeg -73.240360 8.243273 -6.908884
RightLeg 65.531021 -0.000000 -0.000000
RightFoot 25.257459 -4.197368 12.990634
RightToeBase -9.316560 -0.000000 0.000000
787
root 6.597184 35.919235 3.844868 7.309246 -48.604922 -360.130798
Spine -8.982904 -7.507761 -4.534806
Head 34.425882 9.920568 18.104613
LeftShoulder -8.438939 22.083736 13.218887
LeftArm 17.942690 15.158511 -77.658780
LeftForeArm 19.312352 -0.000000 21.277902
LeftHand -12.981063 -0.000000 -11.469422
LeftHandThumb1 -26.253704 0.000000 33.147579
RightShoulder -38.988443 -49.646084 21.014855
RightArm 54.132569 -16.984928 47.671683
RightForeArm -1.936180 -0.000000 23.371048
RightHand -3.762709 0.000000 22.175489
RightHandThumb1 -24.326973 -0.000000 -32.862282
LeftUpLeg -9.792747 -1.709869 -6.127361
LeftLeg 17.914496 -0.000000 -0.000000
LeftFoot -16.019134 2.192728 -1.851803
LeftToeBase 8.861924 -0.000000 -0.000000
RightUpLeg -73.380980 8.021672 -6.514061
RightLeg 65.821813 -0.000000 -0.000000
RightFoot 29.444076 -4.143145 15.191468
RightToeBase -7.450512 -0.000000 0.000000
788
root 6.601382 35.916920 3.846053 7.384039 -48.845416 -360.203170
Spine -9.020313 -7.292332 -4.566998
Head 34.417058 9.837165 18.180873
LeftShoulder -8.436645 22.126144 13.257431
LeftArm 17.878488 15.127702 -77.688793
LeftForeArm 19.269327 -0.000000 21.372318
LeftHand -12.944854 -0.000000 -11.529662
LeftHandThumb1 -26.253704 0.000000 33.147579
RightShoulder -39.019504 -49.674940 21.114293
RightArm 54.176301 -17.016289 47.496907
RightForeArm -1.542543 -0.000000 23.428579
RightHand -3.778837 -0.000000 22.611047
RightHandThumb1 -24.326973 -0.000000 -32.862282
LeftUpLeg -9.835759 -1.593913 -6.108639
LeftLeg 17.961092 -0.000000 -0.000000
LeftFoot -16.100030 2.269564 -1.924146
LeftToeBase 8.962299 -0.000000 -0.000000
RightUpLeg -73.534942 7.823038 -6.046472
RightLeg 66.188779 -0.000000 -0.000000
RightFoot 33.129955 -4.138464 17.274702
RightToeBase -6.426791 -0.000000 0.000000
789
root 6.605589 35.914406 3.845256 7.485353 -49.100479 -360.272417
Spine -9.094973 -7.070142 -4.607373
Head 34.427660 9.757600 18.280267
LeftShoulder -8.413036 22.152191 13.313780
LeftArm 17.788987 15.100374 -77.728590
LeftForeArm 19.185721 0.000000 21.464668
LeftHand -12.890332 -0.000000 -11.552587
LeftHandThumb1 -26.253704 0.000000 33.147579
RightShoulder -39.084477 -49.696036 21.244261
RightArm 54.224409 -17.020640 47.364203
RightForeArm -1.187971 -0.000000 23.419908
RightHand -3.723744 0.000000 22.992024
RightHandThumb1 -24.326973 -0.000000 -32.862282
LeftUpLeg -9.908303 -1.456514 -6.091106
LeftLeg 18.005851 -0.000000 -0.000000
LeftFoot -16.186850 2.330702 -1.995122
LeftToeBase 9.061273 -0.000000 -0.000000
RightUpLeg -73.703179 7.618897 -5.504535
RightLeg 66.646233 -0.000000 -0.000000
RightFoot 35.811252 -3.929403 19.091273
RightToeBase -4.776824 -0.000000 0.000000
790
root 6.608759 35.911377 3.843998 7.561716 -49.306960 -360.334823
Spine -9.144784 -6.932455 -4.643225
Head 34.461105 9.727887 18.371631
LeftShoulder -8.404297 22.211087 13.350474
LeftArm 17.730881 15.130700 -77.719365
LeftForeArm 19.034338 -0.000000 21.559147
LeftHand -12.861806 -0.000000 -11.521072
LeftHandThumb1 -26.253704 0.000000 33.147579
RightShoulder -39.065234 -49.723341 21.282419
RightArm 54.232630 -17.034282 47.333915
RightForeArm -0.932917 -0.000000 23.388129
RightHand -3.649441 -0.000000 23.370807
RightHandThumb1 -24.326973 -0.000000 -32.862282
LeftUpLeg -9.964041 -1.374889 -6.069402
LeftLeg 18.057019 -0.000000 -0.000000
LeftFoot -16.261807 2.410652 -2.051894
LeftToeBase 9.096685 -0.000000 -0.000000
RightUpLeg -73.803220 7.359957 -4.870068
RightLeg 67.149780 -0.000000 -0.000000
RightFoot 37.298765 -3.301958 20.377911
RightToeBase -3.754005 -0.000000 0.000000
791
root 6.610152 35.907630 3.845446 7.615770 -49.519467 -360.378210
Spine -9.197609 -6.803686 -4.690732
Head 34.521975 9.698143 18.465106
LeftShoulder -8.399097 22.319846 13.370140
LeftArm 17.713677 15.177974 -77.674460
LeftForeArm 18.927222 -0.000000 21.668711
LeftHand -12.823244 -0.000000 -11.575278
LeftHandThumb1 -26.253704 0.000000 33.147579
RightShoulder -39.087583 -49.760815 21.378271
RightArm 54.235211 -17.014846 47.285546
RightForeArm -0.562453 -0.000000 23.374043
RightHand -3.517256 0.000000 23.761645
RightHandThumb1 -24.326973 -0.000000 -32.862282
LeftUpLeg -10.000080 -1.287570 -6.066180
LeftLeg 18.095396 -0.000000 -0.000000
LeftFoot -16.332391 2.495979 -2.097147
LeftToeBase 9.149637 -0.000000 -0.000000
RightUpLeg -73.856899 7.110163 -4.151125
RightLeg 67.692248 -0.000000 -0.000000
RightFoot 37.838754 -2.454140 20.701300
RightToeBase -4.486541 -0.000000 0.000000
792
root 6.613347 35.904251 3.847375 7.662320 -49.738081 -360.395528
Spine -9.269008 -6.691037 -4.745704
Head 34.613598 9.682372 18.539344
LeftShoulder -8.408637 22.379562 13.370848
LeftArm 17.672899 15.211245 -77.630643
LeftForeArm 18.893384 -0.000000 21.730865
LeftHand -12.794970 -0.000000 -11.684556
LeftHandThumb1 -26.253704 0.000000 33.147579
RightShoulder -39.144208 -49.802228 21.508660
RightArm 54.254889 -16.945195 47.272720
RightForeArm -0.114783 0.000000 23.328764
RightHand -3.449304 -0.000000 24.194000
RightHandThumb1 -24.326973 -0.000000 -32.862282
LeftUpLeg -10.046875 -1.212884 -6.083734
LeftLeg 18.129803 -0.000000 -0.000000
LeftFoot -16.389503 2.601681 -2.139083
LeftToeBase 9.182415 -0.000000 -0.000000
RightUpLeg -73.929343 6.867458 -3.361301
RightLeg 68.299393 -0.000000 -0.000000
RightFoot 37.617465 -1.840152 20.590857
RightToeBase -5.512558 -0.000000 0.000000
793
root 6.617892 35.900518 3.848505 7.706879 -49.955449 -360.400371
Spine -9.327372 -6.626723 -4.816371
Head 34.672649 9.714718 18.658399
LeftShoulder -8.445019 22.390578 13.387598
LeftArm 17.579551 15.248035 -77.620165
LeftForeArm 18.894920 -0.000000 21.794003
LeftHand -12.750933 -0.000000 -11.725362
LeftHandThumb1 -26.253704 0.000000 33.147579
RightShoulder -39.144041 -49.803289 21.589530
RightArm 54.254184 -16.924036 47.232293
RightForeArm 0.345089 -0.000000 23.272965
RightHand -3.296216 -0.000000 24.522578
RightHandThumb1 -24.326973 -0.000000 -32.862282
LeftUpLeg -10.101875 -1.120436 -6.109274
LeftLeg 18.158355 -0.000000 -0.000000
LeftFoot -16.433914 2.687372 -2.165504
LeftToeBase 9.171904 -0.000000 -0.000000
RightUpLeg -74.003677 6.645741 -2.579697
RightLeg 68.897018 -0.000000 -0.000000
RightFoot 37.106962 -1.727675 20.387152
RightToeBase -6.595437 -0.000000 0.000000
